<svg width="100" height="100" viewBox="0 0 100 100" fill="none" xmlns="http://www.w3.org/2000/svg">
<path fill-rule="evenodd" clip-rule="evenodd" d="M13.8841 90.0032L5.85938 0H94.0379L86.0047 89.9884L49.8953 100L13.8841 90.0032Z" fill="#0071BC"/>
<path fill-rule="evenodd" clip-rule="evenodd" d="M50.0227 92.3428L79.1646 84.3258L85.9925 7.49539H50.0227V92.3428Z" fill="#29ABE2"/>
<path fill-rule="evenodd" clip-rule="evenodd" d="M24.2278 40.5621L25.1945 51.5845L50.0227 40.5621V29.522L24.2278 40.5621Z" fill="#B3B3B3"/>
<path fill-rule="evenodd" clip-rule="evenodd" d="M77.5207 17.7371L50.0227 29.522V40.5621L76.5726 28.7594L77.5207 17.7371Z" fill="#E6E6E6"/>
<path fill-rule="evenodd" clip-rule="evenodd" d="M50.0227 69.4018L49.9374 69.4146L37.6244 66.1079L36.82 57.3161H25.7383L27.2848 74.6365L49.935 80.908L50.0227 80.8873V69.4018Z" fill="#E6E6E6"/>
<path fill-rule="evenodd" clip-rule="evenodd" d="M50.0227 40.5621V51.5845H63.5034L62.2782 65.9953L50.0227 69.4113V80.8959L72.5977 74.6244L75.5705 40.5621H50.0227Z" fill="white"/>
<path fill-rule="evenodd" clip-rule="evenodd" d="M50.0227 40.5621H24.2278L25.1945 51.5845H50.0227V40.5621Z" fill="#E6E6E6"/>
<path fill-rule="evenodd" clip-rule="evenodd" d="M50.0227 28.7594V17.7371H49.9108H22.2681L23.2462 28.7594H50.0227Z" fill="#E6E6E6"/>
<path fill-rule="evenodd" clip-rule="evenodd" d="M50.0227 17.7371V28.6212V28.7594H76.5726L77.5207 17.7371H50.0227Z" fill="white"/>
</svg>
