<svg width="100" height="100" viewBox="0 0 100 100" fill="none" xmlns="http://www.w3.org/2000/svg">
<path d="M33.4635 100C42.6635 100 50.1302 92.5333 50.1302 83.3334V66.6667H33.4635C24.2635 66.6667 16.7969 74.1334 16.7969 83.3334C16.7969 92.5333 24.2635 100 33.4635 100Z" fill="#0ACF83"/>
<path d="M16.7969 50C16.7969 40.8 24.2635 33.3333 33.4635 33.3333H50.1302V66.6667H33.4635C24.2635 66.6667 16.7969 59.2 16.7969 50Z" fill="#A259FF"/>
<path d="M16.7969 16.6667C16.7969 7.46667 24.2635 0 33.4635 0H50.1302V33.3333H33.4635C24.2635 33.3333 16.7969 25.8667 16.7969 16.6667Z" fill="#F24E1E"/>
<path d="M50.1302 0H66.7969C75.9969 0 83.4635 7.46667 83.4635 16.6667C83.4635 25.8667 75.9969 33.3333 66.7969 33.3333H50.1302V0Z" fill="#FF7262"/>
<path d="M83.4635 50C83.4635 59.2 75.9969 66.6667 66.7969 66.6667C57.5969 66.6667 50.1302 59.2 50.1302 50C50.1302 40.8 57.5969 33.3333 66.7969 33.3333C75.9969 33.3333 83.4635 40.8 83.4635 50Z" fill="#1ABCFE"/>
</svg>
