<svg width="100" height="100" viewBox="0 0 100 100" fill="none" xmlns="http://www.w3.org/2000/svg">
<g clip-path="url(#clip0_2_101)">
<path d="M19.8042 62.144L80.8296 41.772C79.6103 34.1458 78.7412 29.0513 77.7345 25.1631C76.6497 20.9812 75.79 19.8623 75.4523 19.4747C74.2757 18.1283 72.8107 17.0643 71.1662 16.3617C70.691 16.1586 69.3592 15.6866 65.0511 15.946C60.493 16.2211 54.5092 17.1525 45.0334 18.6527C35.5607 20.153 29.5801 21.1187 25.1626 22.2627C20.9828 23.3472 19.8604 24.2099 19.4728 24.5474C18.1285 25.7257 17.0655 27.1885 16.3621 28.8325C16.1589 29.3075 15.6868 30.639 15.9463 34.9491C16.2214 39.506 17.1531 45.4914 18.6537 54.9648C19.0726 57.6214 19.4509 59.9968 19.8042 62.144Z" fill="url(#paint0_linear_2_101)"/>
<path d="M2.97841 57.4464C0.0772059 39.1185 -1.37652 29.9545 1.76854 22.5971C3.40802 18.7599 5.89138 15.3413 9.03406 12.5955C15.0584 7.33529 24.2216 5.88506 42.548 2.98147C60.8806 0.0747539 70.0438 -1.37548 77.4063 1.76877C81.2424 3.40837 84.6597 5.89108 87.4042 9.03243C92.6689 15.0584 94.1195 24.2224 97.0207 42.5534C99.925 60.8813 101.376 70.0484 98.2306 77.4027C96.5922 81.2397 94.1099 84.6583 90.9682 87.4043C84.9438 92.6676 75.7775 94.1179 57.448 97.0215C39.1216 99.9251 29.9553 101.375 22.5991 98.231C18.763 96.5913 15.3458 94.1087 12.6012 90.9674C7.33648 84.9414 5.88587 75.7775 2.98154 57.4464H2.97841ZM35.3075 89.9953C40.2158 89.6984 46.5372 88.7076 55.8942 87.2262C65.2543 85.7447 71.5664 84.732 76.3308 83.4974C80.9421 82.3004 83.068 81.1346 84.4405 79.9344C86.4596 78.1691 88.055 75.9716 89.108 73.5052C89.8271 71.8299 90.2804 69.4483 89.9928 64.6913C89.6958 59.7843 88.7047 53.4614 87.2229 44.1036C85.741 34.7459 84.7312 28.4293 83.4963 23.6691C82.2989 19.0559 81.1297 16.9306 79.9323 15.5585C78.1679 13.539 75.9709 11.943 73.5047 10.889C71.829 10.1701 69.4467 9.71692 64.6885 10.0045C59.7802 10.3014 53.4619 11.2922 44.1018 12.7737C34.7448 14.2583 28.4296 15.2678 23.6683 16.5024C19.0539 17.6994 16.9311 18.8684 15.5587 20.0654C13.5384 21.8305 11.942 24.028 10.888 26.4946C10.172 28.1699 9.71872 30.5515 10.0063 35.3085C10.3033 40.2187 11.2913 46.5384 12.7762 55.8962C14.2581 65.2539 15.2679 71.5705 16.5028 76.3307C17.7002 80.9439 18.8663 83.0692 20.0668 84.4413C21.8313 86.4607 24.0283 88.0568 26.4945 89.1108C28.1702 89.8297 30.5493 90.2829 35.3106 89.9953H35.3075Z" fill="url(#paint1_linear_2_101)"/>
</g>
<defs>
<linearGradient id="paint0_linear_2_101" x1="39.1716" y1="19.2129" x2="47.4246" y2="70.7631" gradientUnits="userSpaceOnUse">
<stop stop-color="#66E3FF"/>
<stop offset="1" stop-color="#7064F9"/>
</linearGradient>
<linearGradient id="paint1_linear_2_101" x1="39.1716" y1="-0.000258355" x2="55.0501" y2="99.1812" gradientUnits="userSpaceOnUse">
<stop stop-color="#66E3FF"/>
<stop offset="1" stop-color="#7064F9"/>
</linearGradient>
<clipPath id="clip0_2_101">
<rect width="100" height="100" fill="white"/>
</clipPath>
</defs>
</svg>
