<svg width="100" height="100" viewBox="0 0 100 100" fill="none" xmlns="http://www.w3.org/2000/svg">
<path fill-rule="evenodd" clip-rule="evenodd" d="M13.8838 90.0036L5.85938 0H94.0343L86.0013 89.9895L49.8929 100L13.8838 90.0036Z" fill="#E44D26"/>
<path fill-rule="evenodd" clip-rule="evenodd" d="M49.9468 92.3484L79.1242 84.2593L85.9889 7.35913H49.9468V92.3484Z" fill="#F16529"/>
<path d="M35.3399 40.7402H49.9469V51.7786H25.2446L22.2673 18.3978H49.9469V29.4365H34.3311L35.3399 40.7402Z" fill="#EBEBEB"/>
<path d="M49.8985 69.4215L49.9469 69.4086V80.8933L49.896 80.9074L27.2844 74.6303L25.7378 57.2981H36.8188L37.6047 66.1019L49.8985 69.4215Z" fill="#EBEBEB"/>
<path d="M49.9087 18.3978H77.5605L76.5721 29.4365H49.9087V18.3978Z" fill="white"/>
<path d="M49.9087 51.7786V40.7402H75.5677L75.2984 43.7044L72.5384 74.6303L49.9087 80.9021V69.4178L62.2202 66.0948L63.5015 51.7786H49.9087Z" fill="white"/>
</svg>
