<svg width="100" height="100" viewBox="0 0 100 100" fill="none" xmlns="http://www.w3.org/2000/svg">
<g clip-path="url(#clip0_2_184)">
<path d="M37.0337 77.3355C37.0337 77.3355 33.2123 79.5578 39.7533 80.3098C47.6775 81.2138 51.7275 81.0842 60.4601 79.4314C60.4601 79.4314 62.756 80.871 65.9623 82.1178C46.3862 90.5078 21.6577 81.6319 37.0337 77.3355Z" fill="#5382A1"/>
<path d="M34.6421 66.3871C34.6421 66.3871 30.356 69.5598 36.9019 70.2368C45.3668 71.1101 52.0518 71.1816 63.6193 68.9541C63.6193 68.9541 65.2192 70.5762 67.735 71.4632C44.0663 78.3843 17.7037 72.009 34.6421 66.3871Z" fill="#5382A1"/>
<path d="M54.808 47.815C59.6315 53.3685 53.5406 58.3658 53.5406 58.3658C53.5406 58.3658 65.7884 52.0432 60.1636 44.1257C54.9101 36.7421 50.8814 33.0735 72.6912 20.4246C72.6912 20.4246 38.4571 28.9747 54.808 47.815Z" fill="#E76F00"/>
<path d="M80.699 85.4336C80.699 85.4336 83.5269 87.7637 77.5845 89.5664C66.2849 92.9894 30.5544 94.0231 20.6286 89.7027C17.0606 88.1505 23.7517 85.9964 25.8565 85.5444C28.0515 85.0684 29.3059 85.1571 29.3059 85.1571C25.3379 82.3618 3.65808 90.6458 18.2937 93.0183C58.2071 99.4911 91.052 90.1035 80.699 85.4336Z" fill="#5382A1"/>
<path d="M38.872 55.0433C38.872 55.0433 20.6972 59.3601 32.4359 60.9277C37.3923 61.5913 47.2728 61.4412 56.4762 60.6701C63.9978 60.0356 71.5504 58.6866 71.5504 58.6866C71.5504 58.6866 68.8982 59.8224 66.9794 61.1326C48.5232 65.9866 12.8692 63.7284 23.1335 58.7634C31.8141 54.5673 38.872 55.0433 38.872 55.0433Z" fill="#5382A1"/>
<path d="M71.4751 73.2674C90.2367 63.5182 81.5621 54.1493 75.5073 55.4115C74.0233 55.7204 73.3616 55.988 73.3616 55.988C73.3616 55.988 73.9125 55.125 74.9648 54.7514C86.943 50.5402 96.1551 67.1717 71.0981 73.7588C71.0981 73.7591 71.3883 73.4995 71.4751 73.2674Z" fill="#5382A1"/>
<path d="M60.1641 0C60.1641 0 70.5545 10.394 50.3091 26.377C34.0744 39.1981 46.6071 46.5083 50.3024 54.8606C40.8259 46.3105 33.8715 38.7838 38.5371 31.7786C45.3851 21.4957 64.3564 16.5102 60.1641 0Z" fill="#E76F00"/>
<path d="M40.7151 99.6857C58.7239 100.838 86.3784 99.0461 87.0334 90.5248C87.0334 90.5248 85.7744 93.7552 72.1501 96.3206C56.7792 99.2132 37.8214 98.8755 26.5773 97.0216C26.5776 97.0213 28.8791 98.9267 40.7151 99.6857Z" fill="#5382A1"/>
</g>
<defs>
<clipPath id="clip0_2_184">
<rect width="100" height="100" fill="white"/>
</clipPath>
</defs>
</svg>
