<svg width="100" height="98" viewBox="0 0 100 98" fill="none" xmlns="http://www.w3.org/2000/svg">
<path d="M78.916 77.6977C82.4528 76.2042 86.6697 75.6607 92.1107 75.7961C91.9576 74.7797 90.0133 73.5726 88.5889 72.6882C88.1107 72.3913 87.6912 72.1308 87.4176 71.9261C85.2411 70.3645 82.9285 68.7343 80.6163 67.309C79.8714 66.8546 78.799 66.4754 77.7669 66.1106C77.103 65.8758 76.4558 65.647 75.9233 65.4079C75.3792 65.1865 74.6381 64.9651 73.838 64.7261C71.9376 64.1585 69.7041 63.4913 68.9859 62.4883C67.1366 60.0879 65.8459 57.1854 64.5571 54.287C64.424 53.9876 64.2909 53.6882 64.1572 53.3894C63.4825 51.8498 62.732 50.2799 61.9773 48.7012C61.1343 46.9379 60.2861 45.1635 59.5324 43.408C59.2039 42.6929 58.9542 42.0169 58.7084 41.3515C58.3941 40.5006 58.0861 39.6669 57.6281 38.7909C52.6628 29.2171 45.3179 21.2045 36.408 15.5689C33.4831 13.7355 30.219 12.0375 26.614 10.8836C25.5131 10.554 24.2935 10.5009 23.0619 10.4474C22.0108 10.4016 20.951 10.3555 19.9488 10.1368H18.5203C17.6956 9.90813 16.9635 9.24797 16.2825 8.63386C15.9526 8.33635 15.6347 8.04965 15.324 7.82806C13.2153 6.40232 11.1071 5.45111 8.59056 4.43304C7.7065 4.02581 5.18994 3.07503 4.30585 3.8222C3.76141 3.95808 3.48962 4.1617 3.3535 4.70481C2.80949 5.51971 3.28609 6.74182 3.62573 7.48855C4.29987 8.92439 5.15231 9.97483 6.02583 11.0513C6.47423 11.6038 6.9282 12.1632 7.36645 12.7851C7.57577 13.0801 7.79399 13.3817 8.01588 13.6884C9.01974 15.0759 10.0986 16.5671 10.7671 18.0131C11.7104 20.0418 12.3827 22.1864 13.0527 24.3231C13.6385 26.1916 14.2224 28.0541 14.984 29.8279C15.5958 31.2541 16.5482 32.8834 17.4322 34.1737C17.7095 34.5513 18.071 34.8915 18.4369 35.2359C19.0581 35.8206 19.6921 36.4173 19.9488 37.2292C20.6102 38.3297 19.3959 41.4809 18.6581 43.3956C18.4854 43.8437 18.3388 44.2242 18.2485 44.4947C16.4799 50.0621 16.82 57.8029 18.8603 62.6237C18.9333 62.7936 19.0057 62.9662 19.0786 63.14C19.8217 64.912 20.6194 66.814 22.6011 67.309C22.6627 67.2475 22.6686 67.2278 22.6818 67.2183C22.6978 67.2069 22.7246 67.2104 22.8733 67.1731C22.9728 66.3926 23.0575 65.6181 23.141 64.8544C23.457 61.9641 23.7559 59.2298 24.7776 56.9203C25.2644 55.7278 26.0674 54.7651 26.8501 53.8268C27.2707 53.3225 27.6855 52.8253 28.0421 52.3032C28.4737 52.5616 28.6314 53.1481 28.7934 53.7506C28.8867 54.0974 28.9814 54.4496 29.1306 54.7474C29.1948 54.9003 29.2593 55.0542 29.3243 55.2091C30.1537 57.1864 31.046 59.3138 32.055 61.2657C34.2993 65.6115 36.8163 69.8209 39.6725 73.6236C40.6245 74.9816 41.9851 76.4755 43.2093 77.6976C43.3954 77.8603 43.5896 77.9991 43.7807 78.1358C44.1482 78.3985 44.5049 78.6535 44.7735 79.0556H44.9096V79.2597C43.6184 78.7868 42.6268 77.7701 41.659 76.7776C41.0974 76.2018 40.5439 75.6342 39.9443 75.1857C36.8838 72.8769 33.2113 69.4137 31.1027 66.0868C30.4385 64.6587 29.7361 63.2688 29.024 61.8597C28.7882 61.393 28.5513 60.9242 28.3143 60.4512C28.3143 60.4512 28.3147 60.3831 28.3143 60.3153C28.0544 60.6614 28.0154 61.0073 27.9684 61.4237C27.9416 61.6607 27.9123 61.9206 27.8381 62.2165C27.5861 63.1845 27.4611 64.1913 27.3404 65.1642C27.0378 67.6034 26.7615 69.8304 24.5736 70.704C21.1051 72.1302 18.5203 68.3948 17.4323 66.6977C13.9638 61.0621 13.0114 51.556 15.4597 43.8834C15.6491 43.2928 15.7809 42.6612 15.9123 42.0313C16.1586 40.8507 16.4036 39.6764 17.0243 38.7909C16.8879 37.9749 16.4182 37.5522 15.9591 37.139C15.7306 36.9334 15.5048 36.7302 15.324 36.4821C14.3717 35.1922 13.5559 33.6983 12.8075 32.2726C11.72 30.1532 10.8694 27.7188 10.0451 25.3595C9.78657 24.6195 9.5306 23.8869 9.27072 23.1738C9.03856 22.5779 8.88734 21.9819 8.73813 21.3938C8.58131 20.7757 8.42671 20.1663 8.18269 19.5752C7.53975 18.1844 6.47511 16.7939 5.4867 15.5029C5.22027 15.1549 4.95938 14.8142 4.71377 14.4826C4.44882 14.103 4.098 13.663 3.70693 13.1726C1.78925 10.7675 -1.0963 7.14865 0.429068 3.48271C3.28568 -3.51095 13.2841 1.78477 17.16 4.22944C17.5476 4.47822 17.9578 4.8394 18.3813 5.21233C18.9983 5.75571 19.6437 6.32403 20.2889 6.60595C21.1392 6.64003 21.9897 6.69095 22.8401 6.74186C23.6901 6.79276 24.5401 6.84365 25.3899 6.87772C25.6683 6.94276 25.9452 7.00678 26.2204 7.07039C29.1042 7.73712 31.7981 8.35991 34.0954 9.66146C45.7937 16.5196 53.4112 23.5133 60.4165 35.0563C61.3675 36.6098 62.0164 38.2457 62.6772 39.9116C63.0561 40.8669 63.439 41.832 63.8849 42.7971C65.5852 46.7353 67.4904 50.8766 69.4621 54.6115C69.71 55.1066 69.9418 55.6177 70.1742 56.1298C70.7704 57.444 71.3697 58.7649 72.2508 59.8399C72.5675 60.2919 73.2763 60.5331 73.9554 60.7641C74.2966 60.8802 74.6303 60.9938 74.9031 61.1302C75.7828 61.5825 76.7356 61.9932 77.6961 62.4072C79.1861 63.0494 80.6944 63.6995 81.9766 64.5252C85.9212 66.9695 89.7302 69.8887 93.1987 72.8769C93.8999 73.5032 94.481 74.2693 95.0613 75.0343C95.5507 75.6795 96.0395 76.3239 96.5994 76.8832V77.494C95.5113 77.8335 94.4228 78.173 93.3348 78.4448C92.1509 78.7486 91.0344 78.8677 89.9265 78.9859C88.8068 79.1053 87.696 79.2238 86.5336 79.531C86.387 79.5729 86.2369 79.6161 86.0838 79.6602C84.7451 80.0459 83.1833 80.4958 81.8405 80.6177C81.9083 80.6854 81.9766 80.7532 81.9766 80.7532C82.6322 82.6161 85.4196 84.2177 87.704 85.5303C88.5004 85.9879 89.2356 86.4103 89.7981 86.7965C92.4507 88.6976 94.899 91.0064 96.8716 93.6542C97.2106 93.9927 97.5498 94.3144 97.8889 94.636C98.2301 94.9595 98.5711 95.283 98.912 95.6235C99.1423 95.9522 99.293 96.3287 99.4413 96.699C99.5992 97.0935 99.7544 97.4811 100 97.7964V98C99.4049 97.7879 98.9959 97.3635 98.5902 96.9426C98.3467 96.6899 98.1043 96.4384 97.8235 96.2348C97.1829 95.7988 96.5425 95.3253 95.902 94.8518C95.0464 94.2192 94.1908 93.5866 93.3348 93.0434C92.0188 92.2135 90.5969 91.5597 89.168 90.9028C87.7907 90.2696 86.4069 89.6334 85.105 88.8335C83.6091 87.8827 82.1805 86.7965 80.7524 85.7102C79.46 84.7595 78.0323 82.9256 77.2157 81.5681C77.0099 81.2453 76.8803 80.8971 76.7556 80.562C76.5918 80.1217 76.4363 79.7038 76.1272 79.3952C76.229 78.4306 77.1677 78.1871 78.0613 77.9553C78.3626 77.8772 78.6588 77.8003 78.916 77.6977Z" fill="#00546B"/>
<path d="M19.9485 17.1305C20.7647 16.9269 21.5805 16.7905 22.7368 16.7905C22.9524 17.0059 23.2214 17.1892 23.493 17.3742C23.907 17.6562 24.327 17.9424 24.5733 18.3526C24.7244 18.5638 24.8217 18.775 24.9191 18.9862C25.0408 19.2504 25.1626 19.5146 25.3895 19.7788C25.3895 21.4081 24.9138 22.4943 23.961 23.1738C23.961 23.1738 23.8931 23.2415 23.8253 23.3097C23.5535 22.7671 23.2988 22.2246 23.0441 21.6821C22.7887 21.138 22.5333 20.594 22.2607 20.0501C21.9958 19.68 21.6898 19.3408 21.3828 19.0003C20.9012 18.4665 20.417 17.9296 20.0846 17.2664H19.9485V17.1305Z" fill="#00546B"/>
</svg>
