<svg width="100" height="100" viewBox="0 0 100 100" fill="none" xmlns="http://www.w3.org/2000/svg">
<ellipse cx="50" cy="49.8917" rx="48.8281" ry="25.6729" fill="url(#paint0_radial_2_139)"/>
<ellipse cx="50" cy="49.8917" rx="46.9208" ry="23.7656" fill="#6181B6"/>
<path fill-rule="evenodd" clip-rule="evenodd" d="M59.4986 57.5974L61.8256 45.6192C62.3596 42.9108 61.9019 40.889 60.5286 39.6301C59.1934 38.4094 56.9046 37.7991 53.5477 37.7991H49.5041L50.6485 31.8481C50.6866 31.6193 50.6485 31.3904 50.4959 31.1996C50.3433 31.0089 50.1526 30.9326 49.9237 30.9326H44.3542C43.9728 30.9326 43.6676 31.1996 43.5913 31.543L41.1118 44.2459C40.8829 42.7963 40.3488 41.5756 39.4333 40.5838C37.793 38.7146 35.2371 37.7609 31.7657 37.7609H21.0464C20.665 37.7609 20.3598 38.028 20.2835 38.3713L15.2863 64.1586C15.2481 64.3875 15.2863 64.6164 15.4388 64.8071C15.5914 64.9979 15.7822 65.0742 16.011 65.0742H21.6186C22.0001 65.0742 22.3053 64.8071 22.3816 64.4638L23.6023 58.2458H27.7603C29.9347 58.2458 31.8039 58.017 33.2153 57.5592C34.7031 57.0633 36.0382 56.2622 37.2208 55.1559C38.1744 54.2786 38.9755 53.2867 39.5859 52.2186L38.5941 57.3685C38.5559 57.5974 38.5941 57.8262 38.7466 58.017C38.8992 58.2077 39.09 58.284 39.3188 58.284H44.8883C45.2698 58.284 45.5749 58.017 45.6512 57.6736L48.3978 43.5593H52.2125C53.8528 43.5593 54.3106 43.8644 54.4632 44.017C54.5776 44.1315 54.8065 44.5892 54.5395 46.0007L52.327 57.4066C52.2888 57.6355 52.327 57.8644 52.4796 58.0551C52.6321 58.2458 52.8229 58.3221 53.0518 58.3221H58.7738C59.1171 58.2077 59.4223 57.9407 59.4986 57.5974ZM33.7112 47.6791C33.3679 49.472 32.7194 50.769 31.7657 51.4938C30.8121 52.2186 29.248 52.6001 27.1881 52.6001H24.7086L26.5015 43.3685H29.7058C32.0709 43.3685 33.0246 43.8644 33.4061 44.2841C33.902 44.8944 34.0164 46.077 33.7112 47.6791Z" fill="white"/>
<path fill-rule="evenodd" clip-rule="evenodd" d="M83.3023 40.5838C81.662 38.7146 79.1061 37.7609 75.6348 37.7609H64.8392C64.4577 37.7609 64.1525 38.028 64.0762 38.3713L59.079 64.1205C59.0408 64.3494 59.079 64.5782 59.2316 64.769C59.3842 64.9597 59.5749 65.036 59.8038 65.036H65.4114C65.7928 65.036 66.098 64.769 66.1743 64.4257L67.395 58.2077H71.553C73.7274 58.2077 75.5966 57.9788 77.0081 57.5211C78.4958 57.0251 79.8309 56.2241 81.0135 55.1178C82.0053 54.2023 82.8445 53.1723 83.4549 52.066C84.0652 50.9598 84.523 49.7391 84.79 48.4039C85.4385 45.0851 84.9426 42.4911 83.3023 40.5838ZM77.4658 47.6791C77.1225 49.472 76.474 50.769 75.5203 51.4938C74.5666 52.2186 73.0026 52.6001 70.9427 52.6001H68.4631L70.256 43.3685H73.4604C75.8255 43.3685 76.7792 43.8644 77.1606 44.2841C77.6947 44.8944 77.8091 46.077 77.4658 47.6791Z" fill="white"/>
<path fill-rule="evenodd" clip-rule="evenodd" d="M29.7058 42.6056C31.842 42.6056 33.2535 42.9871 33.9783 43.7881C34.7031 44.5892 34.8556 45.9244 34.4742 47.8317C34.0927 49.8154 33.3298 51.265 32.2235 52.1042C31.1172 52.9434 29.4388 53.363 27.1881 53.363H23.793L25.8911 42.6056H29.7058ZM16.0492 64.2731H21.6568L22.9919 57.4448H27.7985C29.9347 57.4448 31.6513 57.2159 33.0246 56.7581C34.3979 56.3004 35.6186 55.5756 36.763 54.5074C37.7167 53.6301 38.4796 52.6764 39.0518 51.6464C39.624 50.6165 40.0436 49.472 40.2725 48.2132C40.8829 45.1614 40.4251 42.7963 38.9374 41.0797C37.4496 39.3631 35.0845 38.5239 31.842 38.5239H21.0464L16.0492 64.2731Z" fill="#000004"/>
<path fill-rule="evenodd" clip-rule="evenodd" d="M44.3924 31.6956H49.9619L48.6267 38.5239H53.5858C56.7139 38.5239 58.8501 39.0579 60.0327 40.1642C61.2152 41.2704 61.5585 43.0252 61.1008 45.4666L58.7738 57.4448H53.1281L55.3406 46.0388C55.6076 44.7418 55.4932 43.8644 55.0735 43.4067C54.6539 42.9489 53.7003 42.6819 52.2888 42.6819H47.8256L44.9646 57.4448H39.3951L44.3924 31.6956Z" fill="#000004"/>
<path fill-rule="evenodd" clip-rule="evenodd" d="M73.4604 42.6056C75.5966 42.6056 77.0081 42.9871 77.7328 43.7881C78.4576 44.5892 78.6102 45.9244 78.2288 47.8317C77.8473 49.8154 77.0843 51.265 75.9781 52.1042C74.8718 52.9434 73.1934 53.363 70.9427 53.363H67.5476L69.6457 42.6056H73.4604ZM59.8038 64.2731H65.4114L66.7465 57.4448H71.553C73.6893 57.4448 75.4059 57.2159 76.7792 56.7581C78.1525 56.3004 79.3732 55.5756 80.5176 54.5074C81.4713 53.6301 82.2342 52.6764 82.8064 51.6464C83.3786 50.6165 83.7982 49.472 84.0271 48.2132C84.6374 45.1614 84.1797 42.7963 82.692 41.0797C81.2042 39.3631 78.8391 38.5239 75.5966 38.5239H64.801L59.8038 64.2731Z" fill="#000004"/>
<defs>
<radialGradient id="paint0_radial_2_139" cx="0" cy="0" r="1" gradientUnits="userSpaceOnUse" gradientTransform="translate(30.4885 33.2473) scale(138.495 72.8181)">
<stop stop-color="white"/>
<stop offset="0.5" stop-color="#4C6B97"/>
<stop offset="1" stop-color="#231F20"/>
</radialGradient>
</defs>
</svg>
