<svg width="100" height="100" viewBox="0 0 100 100" fill="none" xmlns="http://www.w3.org/2000/svg">
<g clip-path="url(#clip0_2_377)">
<path d="M99.5911 56.1565C103.09 29.5915 83.7439 5.30501 56.3989 1.91168C29.0538 -1.48165 3.90831 17.2786 0.408938 43.7951C-3.09043 70.3115 16.2561 94.6465 43.6012 98.0883C70.9962 101.482 96.0417 82.7214 99.5911 56.1565Z" fill="#FF6C37"/>
<path d="M68.0467 32.6456L46.9505 53.1025L41.0016 47.3338C61.7479 27.2162 63.7975 28.9614 68.0467 32.6456Z" fill="white"/>
<path d="M46.9506 53.5872C46.8006 53.5872 46.7006 53.5388 46.6006 53.4418L40.6017 47.6731C40.4017 47.4792 40.4017 47.1884 40.6017 46.9945C61.6979 26.5376 63.8975 28.4766 68.3467 32.3547C68.4467 32.4517 68.4967 32.5486 68.4967 32.694C68.4967 32.8395 68.4467 32.9364 68.3467 33.0334L47.2505 53.4418C47.2005 53.5388 47.0505 53.5872 46.9506 53.5872ZM41.7015 47.3338L46.9506 52.4238L67.2969 32.694C63.5976 29.4946 61.098 28.5251 41.7015 47.3338Z" fill="#FF6C37"/>
<path d="M52.9994 58.9681L47.2504 53.3933L68.3466 32.9364C73.9956 38.4627 65.5471 47.4308 52.9994 58.9681Z" fill="white"/>
<path d="M52.9994 59.4529C52.8494 59.4529 52.7495 59.4044 52.6495 59.3074L46.9005 53.7327C46.8005 53.6357 46.8005 53.5388 46.8005 53.3933C46.8005 53.2479 46.8505 53.151 46.9505 53.054L68.0467 32.5971C68.2467 32.4032 68.5466 32.4032 68.7466 32.5971C70.0464 33.7605 70.7462 35.4087 70.6962 37.1054C70.5963 42.4862 64.2974 49.3214 53.3994 59.3074C53.2494 59.4044 53.0994 59.4529 52.9994 59.4529ZM47.9503 53.3933C51.1498 56.5443 52.4995 57.8047 52.9994 58.2894C61.3979 50.5333 69.5464 42.5832 69.5964 37.1054C69.6464 35.845 69.1465 34.5846 68.2967 33.6151L47.9503 53.3933Z" fill="#FF6C37"/>
<path d="M41.1016 47.4792L45.3508 51.5997C45.4508 51.6967 45.4508 51.7936 45.3508 51.8906C45.3008 51.939 45.3008 51.939 45.2508 51.939L36.4524 53.7811C36.0025 53.8296 35.6025 53.5388 35.5026 53.1025C35.4526 52.8601 35.5526 52.6177 35.7025 52.4723L40.8016 47.5277C40.9016 47.4308 41.0516 47.3823 41.1016 47.4792Z" fill="white"/>
<path d="M36.3025 54.2659C35.5526 54.2659 35.0027 53.6842 35.0027 52.9571C35.0027 52.6177 35.1527 52.2784 35.4026 52.036L40.5017 47.0915C40.8016 46.8491 41.2016 46.8491 41.5015 47.0915L45.7507 51.2119C46.0507 51.4543 46.0507 51.8906 45.7507 52.1814C45.6508 52.2784 45.5508 52.3269 45.4008 52.3754L36.6024 54.2174C36.5024 54.2174 36.4024 54.2659 36.3025 54.2659ZM40.9516 48.0125L36.0525 52.7632C35.9525 52.8601 35.9025 53.0055 36.0025 53.151C36.0525 53.2964 36.2025 53.3449 36.3524 53.2964L44.601 51.5513L40.9516 48.0125Z" fill="#FF6C37"/>
<path d="M79.1947 21.3022C75.9952 18.2966 70.8462 18.3936 67.7467 21.5445C64.6473 24.6955 64.7473 29.64 67.9967 32.6456C70.6462 35.1178 74.6455 35.5541 77.7949 33.712L72.0959 28.1858L79.1947 21.3022Z" fill="white"/>
<path d="M73.5958 35.3117C68.8466 35.3117 64.9973 31.5791 64.9973 26.9739C64.9973 22.3686 68.8466 18.636 73.5958 18.636C75.7954 18.636 77.945 19.4601 79.5447 20.9628C79.6447 21.0598 79.6947 21.1567 79.6947 21.3021C79.6947 21.4476 79.6447 21.5445 79.5447 21.6415L72.7959 28.1858L78.095 33.3242C78.2949 33.5181 78.2949 33.809 78.095 34.0029C78.045 34.0514 78.045 34.0514 77.995 34.0998C76.6952 34.8755 75.1455 35.3117 73.5958 35.3117ZM73.5958 19.654C69.3965 19.654 65.9971 22.9503 66.0471 27.0223C66.0471 31.0943 69.4465 34.3907 73.6458 34.3422C74.7956 34.3422 75.9453 34.0998 76.9952 33.5666L71.7461 28.5251C71.6461 28.4281 71.5961 28.3312 71.5961 28.1858C71.5961 28.0403 71.6461 27.9434 71.7461 27.8464L78.4449 21.3506C77.0951 20.2357 75.3954 19.654 73.5958 19.654Z" fill="#FF6C37"/>
<path d="M79.3446 21.4476L79.2447 21.3506L72.0959 28.1858L77.7449 33.6636C78.2948 33.3242 78.8447 32.9364 79.2947 32.5001C82.4941 29.4461 82.4941 24.5016 79.3446 21.4476Z" fill="white"/>
<path d="M77.795 34.1968C77.645 34.1968 77.545 34.1483 77.445 34.0514L71.746 28.5251C71.6461 28.4281 71.5961 28.3312 71.5961 28.1858C71.5961 28.0403 71.6461 27.9434 71.746 27.8464L78.8448 20.9628C79.0447 20.7689 79.3447 20.7689 79.5446 20.9628L79.6946 21.0598C83.044 24.3077 83.044 29.5431 79.7446 32.8395C79.2447 33.3242 78.6948 33.7605 78.0949 34.0998C77.9449 34.1483 77.8449 34.1968 77.795 34.1968ZM72.7959 28.1858L77.8449 33.0818C78.2449 32.8395 78.6448 32.5001 78.9447 32.2093C81.7942 29.4461 81.9442 24.9379 79.1947 22.0293L72.7959 28.1858Z" fill="#FF6C37"/>
<path d="M68.8966 33.5181C67.6968 32.3547 65.7471 32.3547 64.5474 33.5181L45.7007 51.7936L48.8502 54.8476L68.7966 37.881C70.0964 36.8145 70.1963 34.9239 69.0965 33.6636C68.9966 33.6151 68.9466 33.5666 68.8966 33.5181Z" fill="white"/>
<path d="M48.8002 55.3324C48.6502 55.3324 48.5502 55.2839 48.4502 55.187L45.3008 52.133C45.1008 51.9391 45.1008 51.6482 45.3008 51.4543L64.1474 33.1788C65.5471 31.8215 67.7967 31.8215 69.1965 33.1788C70.5962 34.5361 70.5962 36.7176 69.1965 38.0749C69.1465 38.1234 69.0965 38.1718 69.0465 38.2203L49.1001 55.187C49.0501 55.2839 48.9501 55.3324 48.8002 55.3324ZM46.4006 51.7936L48.8502 54.169L68.4466 37.4932C69.5464 36.6206 69.6464 35.0209 68.7466 33.9544C67.8467 32.8879 66.197 32.791 65.0972 33.6636C65.0472 33.712 64.9972 33.7605 64.8973 33.809L46.4006 51.7936Z" fill="#FF6C37"/>
<path d="M31.2533 72.5899C31.0533 72.6868 30.9533 72.8807 31.0033 73.0746L31.8532 76.5649C32.0532 77.0497 31.7532 77.6314 31.2033 77.7768C30.8034 77.9222 30.3535 77.7768 30.1035 77.486L24.6045 72.2021L42.5513 54.7991L48.7501 54.8961L52.9494 58.9681C51.9496 59.7922 45.9007 65.4639 31.2533 72.5899Z" fill="white"/>
<path d="M30.8534 78.2616C30.4535 78.2616 30.0535 78.1162 29.8036 77.8253L24.3546 72.5414C24.2546 72.4445 24.2046 72.3475 24.2046 72.2021C24.2046 72.0567 24.2546 71.9597 24.3546 71.8628L42.3013 54.4598C42.4013 54.3629 42.5513 54.3144 42.6513 54.3144L48.8502 54.4113C49.0001 54.4113 49.1001 54.4598 49.2001 54.5568L53.3993 58.6288C53.4993 58.7257 53.5493 58.8711 53.5493 59.0166C53.5493 59.162 53.4993 59.259 53.3493 59.3559L52.9994 59.6468C47.7004 64.155 40.5017 68.6633 31.5533 72.9777L32.4031 76.4195C32.5531 77.0497 32.2531 77.7284 31.6532 78.0677C31.3533 78.2131 31.1033 78.2616 30.8534 78.2616ZM25.3544 72.2021L30.5035 77.1466C30.6534 77.389 30.9534 77.486 31.2033 77.3406C31.4533 77.1951 31.5533 76.9043 31.4033 76.6619L30.5534 73.1716C30.4535 72.7353 30.6534 72.3475 31.0534 72.1536C39.9018 67.8392 47.0505 63.3794 52.2995 58.9681L48.6002 55.3809L42.8512 55.2839L25.3544 72.2021Z" fill="#FF6C37"/>
<path d="M20.3553 76.371L24.6545 72.2021L31.0534 78.407L20.8552 77.7283C20.4053 77.6799 20.1053 77.2921 20.1553 76.8558C20.1553 76.6619 20.2053 76.468 20.3553 76.371Z" fill="white"/>
<path d="M31.0534 78.8433L20.8052 78.1646C20.0553 78.1162 19.5554 77.486 19.6054 76.7588C19.6554 76.468 19.7554 76.1771 20.0054 75.9832L24.3046 71.8143C24.5045 71.6204 24.8045 71.6204 25.0045 71.8143L31.4033 78.0192C31.5533 78.1646 31.6033 78.3586 31.5033 78.5525C31.4033 78.7464 31.2533 78.8433 31.0534 78.8433ZM24.6545 72.8808L20.7052 76.7104C20.5553 76.8073 20.5553 77.0497 20.7052 77.1466C20.7552 77.1951 20.8052 77.2436 20.9052 77.2436L29.7536 77.8253L24.6545 72.8808Z" fill="#FF6C37"/>
<path d="M40.8016 57.029C40.5017 57.029 40.3017 56.7867 40.3017 56.5443C40.3017 56.3988 40.3517 56.3019 40.4517 56.2049L45.3008 51.5028C45.5008 51.3089 45.8007 51.3089 46.0007 51.5028L49.1501 54.5568C49.3001 54.7022 49.3501 54.8476 49.3001 55.0415C49.2501 55.1869 49.1001 55.3324 48.9001 55.3808L40.9016 57.029C40.8516 57.029 40.8016 57.029 40.8016 57.029ZM45.6507 52.5208L42.3513 55.7202L47.7504 54.6052L45.6507 52.5208Z" fill="#FF6C37"/>
<path d="M48.7502 54.8961L43.2512 56.0595C42.8513 56.1565 42.4513 55.9141 42.3513 55.5263C42.3014 55.2839 42.3513 55.0415 42.5513 54.8476L45.6008 51.8906L48.7502 54.8961Z" fill="white"/>
<path d="M43.1511 56.5443C42.4513 56.5443 41.9014 56.011 41.9014 55.3324C41.9014 54.993 42.0513 54.7022 42.2513 54.4598L45.3008 51.5028C45.5007 51.3089 45.8007 51.3089 46.0006 51.5028L49.1501 54.5568C49.3 54.7022 49.35 54.8476 49.3 55.0415C49.25 55.1869 49.1001 55.3324 48.9001 55.3808L43.4011 56.5443C43.3011 56.5443 43.2011 56.5443 43.1511 56.5443ZM45.6507 52.5208L42.9512 55.1385C42.8512 55.2354 42.8512 55.3324 42.9012 55.4293C42.9512 55.5263 43.0512 55.5748 43.2011 55.5748L47.8003 54.6052L45.6507 52.5208Z" fill="#FF6C37"/>
<path d="M79.3947 26.1013C79.2947 25.8104 78.9448 25.665 78.6448 25.7619C78.3449 25.8589 78.1949 26.1982 78.2949 26.4891C78.2949 26.5376 78.3449 26.586 78.3449 26.6345C78.6448 27.2162 78.5449 27.9434 78.1449 28.4766C77.945 28.719 77.995 29.0583 78.1949 29.2522C78.4449 29.4461 78.7948 29.3976 78.9948 29.1553C79.7446 28.2342 79.8946 27.0708 79.3947 26.1013Z" fill="#FF6C37"/>
</g>
<defs>
<clipPath id="clip0_2_377">
<rect width="100" height="100" fill="white"/>
</clipPath>
</defs>
</svg>
