<svg width="100" height="100" viewBox="0 0 100 100" fill="none" xmlns="http://www.w3.org/2000/svg">
<g clip-path="url(#clip0_2_168)">
<path d="M49.52 0.390625C24.1949 0.390627 25.7764 11.3731 25.7764 11.3731L25.8046 22.7509H49.9718V26.167H16.2055C16.2055 26.167 0 24.3292 0 49.8824C-1.80625e-06 75.4357 14.1446 74.5295 14.1446 74.5295H22.5861V62.6718C22.5861 62.6718 22.1311 48.5273 36.5048 48.5273H60.4743C60.4743 48.5273 73.9413 48.745 73.9413 35.512V13.6317C73.9413 13.6317 75.9859 0.390625 49.52 0.390625ZM36.1942 8.04167C38.5987 8.04167 40.5421 9.98504 40.5421 12.3895C40.5421 14.7939 38.5987 16.7373 36.1942 16.7373C33.7898 16.7373 31.8464 14.7939 31.8464 12.3895C31.8464 9.98504 33.7898 8.04167 36.1942 8.04167Z" fill="url(#paint0_linear_2_168)"/>
<path d="M50.2393 99.6305C75.5644 99.6305 73.9829 88.648 73.9829 88.648L73.9547 77.2702H49.7876V73.8541H83.5538C83.5538 73.8541 99.7593 75.6919 99.7593 50.1386C99.7593 24.5854 85.6148 25.4916 85.6148 25.4916H77.1732V37.3493C77.1732 37.3493 77.6283 51.4938 63.2545 51.4938H39.285C39.285 51.4938 25.8181 51.2761 25.8181 64.5091V86.3894C25.8181 86.3894 23.7734 99.6305 50.2393 99.6305ZM63.5651 91.9794C61.1606 91.9794 59.2173 90.036 59.2173 87.6316C59.2173 85.2271 61.1606 83.2838 63.5651 83.2838C65.9696 83.2838 67.9129 85.2271 67.9129 87.6316C67.9129 90.036 65.9696 91.9794 63.5651 91.9794Z" fill="url(#paint1_linear_2_168)"/>
</g>
<defs>
<linearGradient id="paint0_linear_2_168" x1="9.58706" y1="9.31698" x2="59.0242" y2="58.2609" gradientUnits="userSpaceOnUse">
<stop stop-color="#387EB8"/>
<stop offset="1" stop-color="#366994"/>
</linearGradient>
<linearGradient id="paint1_linear_2_168" x1="39.9316" y1="40.7456" x2="93.0218" y2="90.9333" gradientUnits="userSpaceOnUse">
<stop stop-color="#FFE052"/>
<stop offset="1" stop-color="#FFC331"/>
</linearGradient>
<clipPath id="clip0_2_168">
<rect width="100" height="100" fill="white"/>
</clipPath>
</defs>
</svg>
