<svg width="100" height="100" viewBox="0 0 100 100" fill="none" xmlns="http://www.w3.org/2000/svg">
<path d="M50 19.9219C36.6667 19.9219 28.3333 26.5885 25 39.9219C30 33.2552 35.8333 30.7552 42.5 32.4219C46.3037 33.3728 49.0224 36.1322 52.0317 39.1869C56.9339 44.1628 62.6076 49.9219 75 49.9219C88.3333 49.9219 96.6667 43.2552 100 29.9219C95 36.5885 89.1667 39.0885 82.5 37.4219C78.6963 36.4709 75.9776 33.7115 72.9683 30.6569C68.0661 25.6809 62.3924 19.9219 50 19.9219ZM25 49.9219C11.6667 49.9219 3.33333 56.5885 0 69.9219C5 63.2552 10.8333 60.7552 17.5 62.4219C21.3037 63.3728 24.0224 66.1322 27.0317 69.1869C31.9339 74.1628 37.6076 79.9219 50 79.9219C63.3333 79.9219 71.6667 73.2552 75 59.9219C70 66.5885 64.1667 69.0885 57.5 67.4219C53.6963 66.4709 50.9776 63.7115 47.9683 60.6569C43.0661 55.6809 37.3924 49.9219 25 49.9219Z" fill="url(#paint0_linear_2_92)"/>
<defs>
<linearGradient id="paint0_linear_2_92" x1="-2.77778" y1="39.1219" x2="83.5886" y2="88.9187" gradientUnits="userSpaceOnUse">
<stop stop-color="#2298BD"/>
<stop offset="1" stop-color="#0ED7B5"/>
</linearGradient>
</defs>
</svg>
